Coordinates
version=1
nRows=13
nColumns=36
inDegrees=yes

Units are S.I. units (second, meters, Newtons, ...)
If the header above contains a line with 'inDegrees', this indicates whether rotational values are in degrees (yes) or radians (no).

endheader
time	pelvis_tilt	pelvis_list	pelvis_rotation	pelvis_tx	pelvis_ty	pelvis_tz	hip_flexion_r	hip_adduction_r	hip_rotation_r	knee_angle_r	knee_angle_r_beta	ankle_angle_r	subtalar_angle_r	mtp_angle_r	hip_flexion_l	hip_adduction_l	hip_rotation_l	knee_angle_l	knee_angle_l_beta	ankle_angle_l	subtalar_angle_l	mtp_angle_l	lumbar_extension	lumbar_bending	lumbar_rotation	arm_flex_r	arm_add_r	arm_rot_r	elbow_flex_r	pro_sup_r	arm_flex_l	arm_add_l	arm_rot_l	elbow_flex_l	pro_sup_l
      0.67000000	      3.08002435	      1.64148406	     -5.91810375	      0.69990036	      0.93625571	     -0.23299841	    -12.72278146	     -4.46198264	     -5.36358412	     34.51241314	      0.60235524	    -10.66548799	    -26.10572922	     -6.91887714	     18.48416020	     -0.50467122	    -12.49159387	     13.26000427	      0.23143073	     -8.72132253	    -20.41380024	     -6.91887714	     -5.98257859	     -3.47919835	      5.78569118	      4.51795431	     -8.09636510	    -11.07926046	     47.09631414	    112.52185651	     -8.47941952	     -5.19793337	    -16.39240453	     18.14129492	    105.28859665
      0.68000000	      3.30743198	      2.29478458	     -5.34701983	      0.71349843	      0.93793424	     -0.23617634	    -10.94553790	     -5.71175445	     -6.23742462	     38.81514130	      0.67745202	    -13.76250867	    -26.43183559	     -6.92752723	     17.58529468	      0.55655777	    -12.40613832	     13.58091034	      0.23703160	     -7.97264491	    -20.28702367	     -6.92752723	     -6.12257889	     -4.21314627	      4.94682649	      3.58675261	     -7.74115060	    -11.00021424	     46.42952818	    112.51164726	     -7.76971744	     -5.28793425	    -16.05529250	     18.47880177	    105.33389195
      0.69000000	      3.34759510	      2.86974847	     -4.74867861	      0.72667165	      0.93933477	     -0.23924498	     -8.84673720	     -6.80976369	     -6.89615025	     43.04079089	      0.75120351	    -17.42954436	    -27.71382398	     -6.93851917	     16.86487688	      1.50071787	    -12.31368791	     13.84457602	      0.24163344	     -7.15774908	    -19.95386337	     -6.93851917	     -6.08940899	     -4.83412590	      4.07459044	      2.76838854	     -7.37968914	    -10.91484371	     45.49806772	    112.50529357	     -7.05675469	     -5.44188682	    -15.51610633	     18.92504058	    105.42799053
      0.70000000	      3.43152769	      3.28392068	     -4.17685198	      0.73943795	      0.94083303	     -0.24208546	     -6.78015287	     -7.64647989	     -7.32091809	     46.93252246	      0.81912704	    -21.95193709	    -30.04086124	     -6.96803456	     16.08657328	      2.23196993	    -12.31657918	     14.12300031	      0.24649286	     -6.05060275	    -19.26799252	     -6.96803456	     -6.17364846	     -5.27381960	      3.16694357	      2.09418142	     -7.03908725	    -10.69573823	     44.40012594	    112.56502235	     -6.26789897	     -5.61293390	    -14.36125062	     19.20935289	    105.55787167
      0.71000000	      3.45888098	      3.81323691	     -3.64543734	      0.75192891	      0.94214246	     -0.24489680	     -4.56486004	     -8.70527667	     -7.81392063	     50.77521515	      0.88619468	    -23.59455717	    -30.42975712	     -6.97571375	     15.23120517	      3.14882012	    -12.09839769	     14.05768685	      0.24535292	     -5.32207279	    -19.09133419	     -6.97571375	     -6.23792199	     -5.83733645	      2.37417949	      1.29229594	     -6.64625221	    -10.75158253	     43.52844485	    112.53716899	     -5.39586087	     -5.72790924	    -13.91158592	     19.66794569	    105.63865587
      0.72000000	      3.43465860	      4.19784854	     -3.17028682	      0.76405094	      0.94340225	     -0.24737454	     -2.28900500	     -9.49732744	     -8.08334597	     54.25609162	      0.94694744	    -24.58859189	    -31.20465989	     -6.98290301	     14.42046542	      3.87685305	    -11.80568209	     13.99416350	      0.24424423	     -4.57433061	    -18.91481799	     -6.98290301	     -6.29147669	     -6.25149989	      1.62530644	      0.59770913	     -6.23469508	    -10.83744239	     42.47216885	    112.50667384	     -4.48937868	     -5.87835327	    -13.32357218	     20.18757062	    105.75201107
      0.73000000	      3.36899020	      4.42926471	     -2.76241004	      0.77587366	      0.94468736	     -0.24958109	      0.01995770	    -10.03193946	     -8.22267728	     57.31954169	      1.00041473	    -24.59218666	    -31.96972357	     -6.99035996	     13.62812543	      4.41300262	    -11.47305869	     13.88337730	      0.24231065	     -3.81939117	    -18.75090600	     -6.99035996	     -6.34683336	     -6.49006491	      0.95113792	     -0.03116945	     -5.82424597	    -10.96203346	     41.26877855	    112.47678241	     -3.54138909	     -6.01743092	    -12.59622081	     20.72071941	    105.88634004
      0.74000000	      3.29457930	      4.54693826	     -2.46139688	      0.78743368	      0.94604068	     -0.25147406	      2.34159853	    -10.34542985	     -8.19036736	     59.96837979	      1.04664567	    -23.53270672	    -32.51004337	     -6.99740251	     12.80877139	      4.80296977	    -11.09423703	     13.70589150	      0.23921293	     -3.03631682	    -18.65018563	     -6.99740251	     -6.41469604	     -6.60867254	      0.39460255	     -0.60538257	     -5.43195433	    -11.13469089	     39.96767761	    112.44229224	     -2.53061679	     -6.14649676	    -11.81816377	     21.26320913	    106.02562831
      0.75000000	      3.21606675	      4.46780553	     -2.24866134	      0.79866886	      0.94753610	     -0.25300243	      4.65620362	    -10.29111825	     -7.97082524	     62.15885206	      1.08487663	    -21.01804043	    -32.22031679	     -7.02042962	     12.04960248	      4.90976225	    -10.84294080	     13.64423724	      0.23813686	     -2.25987403	    -18.37570061	     -7.02042962	     -6.49485866	     -6.49970550	     -0.10433371	     -1.03209418	     -5.01483537	    -11.41469355	     38.44768160	    112.50831774	     -1.42817360	     -6.41001662	     -9.89680087	     21.49324772	    106.20276069
      0.76000000	      3.14332744	      4.35619609	     -2.17341580	      0.80981180	      0.94912764	     -0.25433184	      6.97361581	    -10.13268540	     -7.63865754	     63.88441951	      1.11499346	    -19.05941511	    -32.37103507	     -7.03093611	     11.18376832	      4.99835868	    -10.45851547	     13.39763831	      0.23383290	     -1.58800049	    -18.38586644	     -7.03093611	     -6.61015548	     -6.35717853	     -0.39850248	     -1.55916409	     -4.64708630	    -11.76308021	     37.08843799	    112.46313659	     -0.30198278	     -6.49435791	     -9.12083266	     21.98540398	    106.26457748
      0.77000000	      3.08101292	      4.06174522	     -2.20770026	      0.82083668	      0.95087013	     -0.25525028	      9.20689942	     -9.63153402	     -7.21110497	     65.09265388	      1.13608113	    -16.60190455	    -32.01401241	     -7.04688374	     10.29814331	      4.83062361	    -10.25234142	     13.12339773	      0.22904650	     -0.98774645	    -18.32607703	     -7.04688374	     -6.71787016	     -6.01282162	     -0.70349086	     -1.94188334	     -4.21177398	    -12.20340088	     35.61845209	    112.44227475	      0.76671186	     -6.61999165	     -7.99373394	     22.41307010	    106.32241708
      0.78000000	      3.01998475	      3.71008233	     -2.32193402	      0.83179867	      0.95274105	     -0.25611382	     11.33621476	     -8.94289041	     -6.60973694	     65.73041389	      1.14721214	    -14.69084734	    -31.66001187	     -7.06238646	      9.35350405	      4.60804898	    -10.06702480	     12.74179133	      0.22238621	     -0.35464656	    -18.27810400	     -7.06238646	     -6.84675954	     -5.59912257	     -0.80467880	     -2.41064316	     -3.90741447	    -12.63256231	     34.16553616	    112.41606396	      1.90711924	     -6.63488033	     -7.04906039	     22.94329545	    106.35342362
      0.79000000	      2.98749960	      3.23870639	     -2.52375397	      0.84278395	      0.95475427	     -0.25671655	     13.30200269	     -8.01406074	     -5.98291868	     65.81074093	      1.14861411	    -13.68148405	    -31.73337707	     -7.06626306	      8.29941434	      4.24724439	     -9.89466498	     12.22542747	      0.21337396	      0.09644070	    -18.31643341	     -7.06626306	     -7.02882028	     -5.04533609	     -0.85590943	     -2.98078924	     -3.66912207	    -12.82619231	     33.10884705	    112.36286819	      2.97873882	     -6.55748012	     -6.72770569	     23.61368280	    106.41712528
